<svg xmlns="http://www.w3.org/2000/svg" width="256" height="256"><path fill-opacity=".016" d="M0 128.004v128.004l128.25-.254 128.25-.254.254-127.75L257.008 0H0v128.004m.485.496c0 70.4.119 99.053.265 63.672.146-35.38.146-92.98 0-128C.604 29.153.485 58.1.485 128.5" fill="#1976D2" fill-rule="evenodd"/><path fill-opacity=".378" d="M172.537 5.056c-5.659 2.823-9.072 6.435-11.571 12.245-4.703 10.933-.56 23.101 10.026 29.449l5.42 3.25h-9.435c-9.164 0-10.965.437-62.706 15.205C74.972 73.568 51 80.655 51 80.955c0 .3 24.273.421 53.942.27l53.942-.275 7.558 23.003c4.157 12.652 7.558 24.462 7.558 26.245 0 1.782-3.375 29.892-7.5 62.467-4.125 32.574-7.5 59.494-7.5 59.821 0 .327 3.676.464 8.169.304l8.17-.29 15.08-45.181c8.295-24.849 15.318-45.411 15.608-45.693.29-.282 7.413 20.161 15.829 45.43L237.159 253h7.92c6.114 0 7.921-.319 7.921-1.397 0-.768-3.394-28.331-7.541-61.25-6.475-51.383-8.605-65.301-15.053-98.353-4.131-21.175-7.743-39.288-8.026-40.25-.463-1.574-2.192-1.754-17.197-1.79l-16.683-.04 3.963-1.976c8.866-4.423 13.551-11.879 13.515-21.51-.036-9.841-5.494-18.254-14.196-21.883-5.206-2.172-14.36-1.931-19.245.505M42.021 111.958 33.988 128h32.063l-.276-15.75L65.5 96.5l-7.723-.292-7.724-.291-8.032 16.041M3 144.803c0 .992 3.375 25.38 7.5 54.197 4.125 28.817 7.5 52.755 7.5 53.197 0 .442 21.375.803 47.5.803s47.5-.361 47.5-.803c0-.442 3.375-24.38 7.5-53.197 4.125-28.817 7.5-53.205 7.5-54.197 0-1.718-2.944-1.803-62.5-1.803S3 143.085 3 144.803" fill="#1976D2" fill-rule="evenodd"/><path fill-opacity=".513" d="M174.519 4.537c-12.443 4.745-18.752 20.664-12.739 32.144 2.538 4.845 8.524 10.201 13.357 11.95 3.06 1.107 2.462 1.227-6.637 1.326-9.777.106-11.19.451-63.5 15.503L51.5 80.854l53.914.323 53.914.323 7.829 23.463 7.829 23.463-7.505 60.037c-4.128 33.02-7.734 61.049-8.012 62.287-.493 2.187-.284 2.25 7.429 2.25h7.935l15.209-45.75c8.364-25.163 15.499-46.075 15.855-46.472.355-.396 7.606 20.191 16.112 45.75L237.476 253h15.7l-.608-3.75c-.335-2.062-3.932-30.075-7.995-62.25-6.41-50.767-8.407-63.689-15.105-97.75L221.749 50l-17.125-.037-17.124-.036 5.325-2.576c12.472-6.032 16.872-21.219 9.57-33.03-5.7-9.22-18.018-13.543-27.876-9.784M42.506 111.988c-4.128 8.243-7.506 15.218-7.506 15.5 0 .281 6.75.512 15 .512h15V97H50.013l-7.507 14.988M3.567 147.75c.325 2.063 3.832 26.475 7.794 54.25l7.203 50.5h93.872l7.203-50.5c3.962-27.775 7.469-52.187 7.794-54.25l.591-3.75H2.976l.591 3.75" fill="#1976D2" fill-rule="evenodd"/><path fill-opacity=".974" d="M175.196 4.858C165.474 8.288 160 16.084 160 26.5c0 10.464 6.149 18.905 16 21.963l4.5 1.398-10.265.069c-10.157.069-10.823.23-63.5 15.32L53.5 80.5l53.026.259 53.027.258 7.887 23.801 7.887 23.8-7.689 60.941c-4.228 33.518-7.677 61.504-7.663 62.191.018.883 2.157 1.25 7.287 1.25h7.262L190 206.5c8.512-25.575 15.781-46.5 16.155-46.5.373 0 7.614 20.813 16.092 46.25l15.413 46.25 7.17.294c7.079.29 7.17.261 7.17-2.233 0-1.389-3.385-29.291-7.522-62.005-6.565-51.914-8.507-64.477-15.266-98.768L221.468 50.5l-17.984-.5c-16.664-.463-17.671-.595-13.717-1.795 15.198-4.614 20.878-24.082 10.547-36.151-6.689-7.814-15.892-10.451-25.118-7.196m-132.69 107.13c-4.128 8.243-7.506 15.218-7.506 15.5 0 .281 6.75.512 15 .512h15V97H50.013l-7.507 14.988m-31.84 82.262c3.959 27.637 7.481 52.162 7.827 54.5l.63 4.25h92.754l.63-4.25c.346-2.338 3.868-26.863 7.827-54.5l7.197-50.25H3.469l7.197 50.25" fill="#1976D2" fill-rule="evenodd"/></svg>